<svg width="16" height="16" viewBox="0 0 16 16" fill="none" xmlns="http://www.w3.org/2000/svg">
<path fill-rule="evenodd" clip-rule="evenodd" d="M6.33333 2.16686C5.22826 2.16686 4.16846 2.60587 3.38706 3.38731C2.60565 4.16875 2.16667 5.22861 2.16667 6.33373C2.16667 7.43885 2.60565 8.49871 3.38706 9.28015C4.16846 10.0616 5.22826 10.5006 6.33333 10.5006C7.4384 10.5006 8.49821 10.0616 9.27961 9.28015C10.061 8.49871 10.5 7.43885 10.5 6.33373C10.5 5.22861 10.061 4.16875 9.27961 3.38731C8.49821 2.60587 7.4384 2.16686 6.33333 2.16686ZM0.5 6.33373C0.500002 5.40974 0.719479 4.49896 1.14036 3.67639C1.56124 2.85383 2.17148 2.14302 2.92084 1.60248C3.67019 1.06194 4.53722 0.707149 5.45053 0.567314C6.36384 0.427478 7.2973 0.506602 8.17404 0.798169C9.05079 1.08974 9.84574 1.58541 10.4934 2.24436C11.1411 2.90332 11.623 3.70671 11.8995 4.58838C12.1759 5.47005 12.239 6.40477 12.0835 7.31559C11.9279 8.2264 11.5583 9.08725 11.005 9.82723L15.2558 14.0774C15.4122 14.2337 15.5001 14.4457 15.5002 14.6668C15.5002 14.8878 15.4125 15.0999 15.2563 15.2562C15.1 15.4126 14.888 15.5005 14.667 15.5006C14.4459 15.5007 14.2339 15.4129 14.0775 15.2567L9.8275 11.0065C8.96043 11.6551 7.92994 12.0496 6.85139 12.1458C5.77284 12.2419 4.68882 12.036 3.72067 11.551C2.75253 11.066 1.93848 10.3211 1.36967 9.39962C0.800855 8.47819 0.499728 7.41661 0.5 6.33373Z" fill="#898595"/>
</svg>
