<svg width="33" height="33" viewBox="0 0 33 33" fill="none" xmlns="http://www.w3.org/2000/svg">
<path d="M0.767456 16.3486C0.767456 7.51208 7.9309 0.348633 16.7675 0.348633V0.348633C25.604 0.348633 32.7675 7.51208 32.7675 16.3486V16.3486C32.7675 25.1852 25.604 32.3486 16.7675 32.3486V32.3486C7.9309 32.3486 0.767456 25.1852 0.767456 16.3486V16.3486Z" fill="#F2F2F2"/>
<path fill-rule="evenodd" clip-rule="evenodd" d="M16.7675 32.3486C7.93046 32.3486 0.767456 25.1856 0.767456 16.3486C0.767456 7.51163 7.93046 0.348633 16.7675 0.348633C25.6045 0.348633 32.7675 7.51163 32.7675 16.3486C32.7675 25.1856 25.6045 32.3486 16.7675 32.3486ZM23.9565 14.3686C24.2705 12.2726 22.6735 11.1456 20.4915 10.3936L21.1995 7.55363L19.4715 7.12363L18.7815 9.88863C18.3275 9.77463 17.8615 9.66863 17.3965 9.56263L18.0915 6.77963L16.3635 6.34863L15.6555 9.18763C15.2795 9.10163 14.9095 9.01763 14.5515 8.92763L14.5535 8.91863L12.1695 8.32363L11.7095 10.1696C11.7095 10.1696 12.9925 10.4636 12.9655 10.4816C13.6655 10.6566 13.7915 11.1196 13.7705 11.4876L12.9645 14.7226C13.0125 14.7346 13.0745 14.7526 13.1445 14.7796L12.9615 14.7346L11.8315 19.2666C11.7455 19.4786 11.5285 19.7976 11.0385 19.6766C11.0565 19.7016 9.78246 19.3636 9.78246 19.3636L8.92446 21.3416L11.1745 21.9026C11.5925 22.0076 12.0025 22.1176 12.4055 22.2206L11.6905 25.0926L13.4175 25.5226L14.1255 22.6826C14.5975 22.8096 15.0555 22.9276 15.5035 23.0396L14.7975 25.8676L16.5255 26.2976L17.2405 23.4316C20.1885 23.9896 22.4045 23.7646 23.3375 21.0986C24.0895 18.9526 23.3005 17.7136 21.7495 16.9066C22.8795 16.6466 23.7295 15.9036 23.9565 14.3686V14.3686ZM20.0065 19.9066C19.4735 22.0536 15.8585 20.8926 14.6865 20.6016L15.6365 16.7966C16.8085 17.0896 20.5655 17.6686 20.0065 19.9066ZM20.5415 14.3376C20.0545 16.2906 17.0465 15.2976 16.0715 15.0546L16.9315 11.6046C17.9065 11.8476 21.0495 12.3006 20.5415 14.3376Z" fill="#333333"/>
</svg>
