<svg width="159" height="25" viewBox="0 0 159 25" fill="none" xmlns="http://www.w3.org/2000/svg">
<g clip-path="url(#clip0_40_19)">
<path d="M103.458 0.576363H90.4899C90.3458 0.576363 90.2738 0.648409 90.2738 0.792501C89.9135 6.62824 88.8329 12.9683 87.2478 18.0836V18.2997C87.3199 18.3718 87.3919 18.3718 87.464 18.3718H91.9308C92.0029 18.3718 92.147 18.2997 92.147 18.2277C93.3718 14.2651 94.3804 9.0778 94.7406 4.68299H98.9913V18.1556C98.9913 18.2997 99.0634 18.3718 99.2075 18.3718H103.458C103.602 18.3718 103.674 18.2997 103.674 18.1556V0.864547C103.674 0.720455 103.602 0.576363 103.458 0.576363ZM158.285 0.576363H154.035C153.89 0.576363 153.818 0.648409 153.818 0.792501V14.1931C152.882 14.4813 151.945 14.5533 150.937 14.5533C148.127 14.5533 147.478 13.6888 147.478 9.94236V0.864547C147.478 0.720455 147.406 0.648409 147.262 0.648409H143.012C142.867 0.648409 142.795 0.720455 142.795 0.864547V10.5187C142.795 16.5706 144.813 18.9481 150.072 18.9481C153.026 18.9481 156.412 18.1556 158.357 17.4352C158.429 17.4352 158.501 17.2911 158.501 17.219V0.864547C158.501 0.720455 158.429 0.576363 158.285 0.576363ZM68.5879 0.648409H64.2651C64.121 0.648409 64.049 0.720455 64.049 0.792501C63.4006 3.45821 62.0317 7.92507 60.1585 12.6081L55.8357 0.720455C55.8357 0.648409 55.6916 0.576363 55.6196 0.576363H51.2968C51.2248 0.576363 51.1527 0.648409 51.0807 0.648409C51.0086 0.720455 51.0086 0.792501 51.0807 0.864547L57.5648 18.5879C56.9164 19.9568 56.268 21.1095 55.6916 22.1902C55.2594 22.9827 54.8271 23.7752 54.3948 24.6398C54.3228 24.7118 54.3948 24.7839 54.3948 24.8559C54.4669 24.9279 54.5389 25 54.611 25H59.2939C59.366 25 59.438 24.9279 59.5101 24.8559C60.3026 23.3429 61.3112 21.1815 62.2478 19.0202C64.9856 12.536 67.219 6.48414 68.8761 0.936594C68.8761 0.864547 68.8761 0.792501 68.804 0.720455C68.732 0.648409 68.6599 0.648409 68.5879 0.648409ZM84.0058 14.2651C84.0058 14.1931 83.9337 14.121 83.8617 14.121H83.6455C82.6369 14.4813 80.6916 14.8415 79.3228 14.8415C76.3689 14.8415 75 14.049 75 9.51008C75 5.90777 75.4323 4.17867 79.3228 4.17867C80.4035 4.17867 81.4841 4.32276 82.781 4.75504C82.9251 4.75504 82.9971 4.75504 83.0692 4.61094C83.5735 3.67435 84.1499 2.59365 84.7983 1.15273V0.936594C84.7983 0.864547 84.7262 0.792501 84.6542 0.792501C82.9251 0.216132 80.8357 -0.072052 79.0346 -0.072052C72.8386 -0.072052 70.1009 2.80979 70.1009 9.36599C70.1009 15.9942 72.8386 18.9481 79.0346 18.9481C80.5475 18.9481 83.6455 18.5879 85.0865 18.0115C85.2305 17.9395 85.2305 17.8674 85.2305 17.7233L84.0058 14.2651ZM124.28 0.648409H119.957C119.885 0.648409 119.741 0.720455 119.741 0.792501C119.092 3.45821 117.723 7.92507 115.85 12.6081L111.527 0.720455C111.527 0.648409 111.383 0.576363 111.311 0.576363H106.988C106.916 0.576363 106.844 0.648409 106.772 0.648409C106.7 0.720455 106.7 0.792501 106.772 0.864547L113.256 18.5879C112.608 19.9568 111.96 21.0375 111.383 22.1902C110.951 22.9827 110.519 23.7752 110.086 24.6398C110.014 24.7118 110.086 24.7839 110.086 24.8559C110.158 24.9279 110.231 25 110.303 25H114.986C115.058 25 115.13 24.9279 115.202 24.8559C115.994 23.3429 117.003 21.1815 117.939 19.0202C120.677 12.536 122.911 6.48414 124.496 0.936594C124.496 0.864547 124.496 0.792501 124.424 0.720455C124.424 0.648409 124.352 0.648409 124.28 0.648409ZM140.13 0.576363H127.594C127.45 0.576363 127.378 0.648409 127.378 0.792501V18.1556C127.378 18.2997 127.45 18.3718 127.594 18.3718H131.844C131.988 18.3718 132.061 18.2997 132.061 18.1556V4.75504H138.617C138.689 4.75504 138.833 4.68299 138.833 4.61094C139.337 3.45821 139.841 2.16138 140.346 0.936594V0.720455C140.274 0.648409 140.202 0.576363 140.13 0.576363Z" fill="#EE3F58"/>
<path d="M22.5504 14.9856C19.7406 14.9856 18.8761 14.1931 18.8761 9.51009C18.8761 4.46686 19.8127 4.03458 22.5504 4.03458C25.2882 4.03458 26.2968 4.46686 26.2968 9.51009C26.2968 14.2651 25.3602 14.9856 22.5504 14.9856ZM22.5504 0.0720461C16.4265 0.0720461 14.049 2.66571 14.049 9.43804C14.049 16.2824 16.4265 18.9481 22.5504 18.9481C28.6744 18.9481 31.1239 16.2824 31.1239 9.43804C31.1239 2.73775 28.6744 0.0720461 22.5504 0.0720461ZM47.9827 14.2651C47.9827 14.1931 47.9107 14.121 47.8386 14.121H47.6225C46.6138 14.4813 44.6686 14.8415 43.2997 14.8415C40.3458 14.8415 38.9769 14.049 38.9769 9.51009C38.9769 5.90778 39.4092 4.17867 43.2997 4.17867C44.3804 4.17867 45.4611 4.32277 46.7579 4.75504C46.83 4.75504 46.9741 4.75504 47.0461 4.61095C47.5504 3.67435 48.1268 2.59366 48.7752 1.15274V0.936599C48.7752 0.864553 48.7032 0.792507 48.6311 0.792507C46.9741 0.288184 44.8847 0 43.0836 0C36.8876 0 34.1499 2.88184 34.1499 9.43804C34.1499 16.0663 36.8876 19.0202 43.0836 19.0202C44.5965 19.0202 47.6945 18.6599 49.1354 18.0836C49.2795 18.0115 49.2795 17.9395 49.2795 17.7954L47.9827 14.2651ZM12.7522 0.576369H0.216138C0.0720461 0.576369 0 0.720461 0 0.864553V18.2277C0 18.3718 0.0720461 18.4438 0.216138 18.4438H4.46686C4.61095 18.4438 4.683 18.3718 4.683 18.2277V4.75504H11.2392C11.3112 4.75504 11.3833 4.683 11.4553 4.61095C11.9597 3.45821 12.464 2.16138 12.9683 0.936599V0.720461C12.8963 0.648415 12.8242 0.576369 12.7522 0.576369Z" fill="#0065B1"/>
</g>
<defs>
<clipPath id="clip0_40_19">
<rect width="158.501" height="25" fill="white"/>
</clipPath>
</defs>
</svg>
