<svg width="33" height="33" viewBox="0 0 33 33" fill="none" xmlns="http://www.w3.org/2000/svg">
<path d="M0.855469 16.4917C0.855469 7.65514 8.01891 0.491699 16.8555 0.491699V0.491699C25.692 0.491699 32.8555 7.65514 32.8555 16.4917V16.4917C32.8555 25.3283 25.692 32.4917 16.8555 32.4917V32.4917C8.01891 32.4917 0.855469 25.3283 0.855469 16.4917V16.4917Z" fill="#F2F2F2"/>
<path fill-rule="evenodd" clip-rule="evenodd" d="M16.8555 32.4917C8.01847 32.4917 0.855469 25.3287 0.855469 16.4917C0.855469 7.6547 8.01847 0.491699 16.8555 0.491699C25.6925 0.491699 32.8555 7.6547 32.8555 16.4917C32.8555 25.3287 25.6925 32.4917 16.8555 32.4917ZM24.8495 16.7107L17.3535 4.4917L9.85547 16.7117L17.3535 21.0647L24.8495 16.7107ZM24.8555 18.1077L17.3535 22.4587L9.85547 18.1087L17.3535 28.4867L24.8555 18.1077Z" fill="#333333"/>
<path d="M17.3535 4.4917V13.3617L24.8505 16.7117L17.3535 4.4917ZM17.3535 22.4597V28.4867L24.8555 18.1077L17.3535 22.4597Z" fill="#333333" fill-opacity="0.298"/>
<path d="M17.3535 21.0646L24.8505 16.7116L17.3535 13.3636V21.0646Z" fill="#333333" fill-opacity="0.801"/>
<path d="M9.85547 16.7116L17.3535 21.0646V13.3636L9.85547 16.7116Z" fill="#333333" fill-opacity="0.298"/>
</svg>
