<svg width="227" height="24" viewBox="0 0 227 24" fill="none" xmlns="http://www.w3.org/2000/svg">
<path d="M0.25275 23V0.599998H5.40475V15.192L16.0928 0.599998H20.9568V23H15.8368V8.44L5.14875 23H0.25275ZM26.534 23V0.599998H30.822L40.358 16.408H38.086L47.462 0.599998H51.75L51.782 23H46.918L46.886 8.056H47.814L40.294 20.632H37.99L30.31 8.056H31.398V23H26.534ZM57.3465 23V0.599998H77.7625V23H72.6105V3.64L73.7945 4.824H61.3145L62.4985 3.64V23H57.3465ZM94.0353 23.384C92.2646 23.384 90.6219 23.096 89.1073 22.52C87.6139 21.944 86.3126 21.1333 85.2033 20.088C84.1153 19.0427 83.2619 17.816 82.6432 16.408C82.0459 15 81.7473 13.464 81.7473 11.8C81.7473 10.136 82.0459 8.6 82.6432 7.192C83.2619 5.784 84.1259 4.55733 85.2352 3.512C86.3446 2.46667 87.6459 1.656 89.1393 1.08C90.6326 0.503999 92.2539 0.216 94.0033 0.216C95.7739 0.216 97.3953 0.503999 98.8673 1.08C100.361 1.656 101.651 2.46667 102.739 3.512C103.849 4.55733 104.713 5.784 105.331 7.192C105.95 8.57867 106.259 10.1147 106.259 11.8C106.259 13.464 105.95 15.0107 105.331 16.44C104.713 17.848 103.849 19.0747 102.739 20.12C101.651 21.144 100.361 21.944 98.8673 22.52C97.3953 23.096 95.7846 23.384 94.0353 23.384ZM94.0033 18.968C95.0059 18.968 95.9233 18.7973 96.7553 18.456C97.6086 18.1147 98.3553 17.624 98.9953 16.984C99.6353 16.344 100.126 15.5867 100.467 14.712C100.83 13.8373 101.011 12.8667 101.011 11.8C101.011 10.7333 100.83 9.76267 100.467 8.888C100.126 8.01333 99.6353 7.256 98.9953 6.616C98.3766 5.976 97.6406 5.48533 96.7873 5.144C95.9339 4.80267 95.0059 4.632 94.0033 4.632C93.0006 4.632 92.0726 4.80267 91.2193 5.144C90.3873 5.48533 89.6513 5.976 89.0113 6.616C88.3713 7.256 87.8699 8.01333 87.5073 8.888C87.1659 9.76267 86.9953 10.7333 86.9953 11.8C86.9953 12.8453 87.1659 13.816 87.5073 14.712C87.8699 15.5867 88.3606 16.344 88.9792 16.984C89.6192 17.624 90.3659 18.1147 91.2193 18.456C92.0726 18.7973 93.0006 18.968 94.0033 18.968ZM110.253 23V0.599998H119.949C121.954 0.599998 123.682 0.930665 125.133 1.592C126.583 2.232 127.703 3.16 128.493 4.376C129.282 5.592 129.677 7.04267 129.677 8.728C129.677 10.392 129.282 11.832 128.493 13.048C127.703 14.264 126.583 15.2027 125.133 15.864C123.682 16.504 121.954 16.824 119.949 16.824H113.133L115.437 14.488V23H110.253ZM115.437 15.064L113.133 12.6H119.661C121.261 12.6 122.455 12.2587 123.245 11.576C124.034 10.8933 124.429 9.944 124.429 8.728C124.429 7.49067 124.034 6.53067 123.245 5.848C122.455 5.16533 121.261 4.824 119.661 4.824H113.133L115.437 2.36V15.064ZM137.335 23V3.64L138.519 4.824H130.199V0.599998H149.623V4.824H141.303L142.455 3.64V23H137.335Z" fill="#0393E3"/>
<path d="M154.286 23.256C153.432 23.256 152.696 22.968 152.078 22.392C151.48 21.7947 151.182 21.0373 151.182 20.12C151.182 19.2027 151.48 18.4667 152.078 17.912C152.696 17.336 153.432 17.048 154.286 17.048C155.16 17.048 155.896 17.336 156.494 17.912C157.091 18.4667 157.39 19.2027 157.39 20.12C157.39 21.0373 157.091 21.7947 156.494 22.392C155.896 22.968 155.16 23.256 154.286 23.256ZM176.613 0.599998H181.797V23H176.613V0.599998ZM166.437 23H161.253V0.599998H166.437V23ZM176.997 13.816H166.053V9.432H176.997V13.816ZM192.177 9.624H202.961V13.656H192.177V9.624ZM192.561 18.84H204.753V23H187.409V0.599998H204.337V4.76H192.561V18.84ZM213.772 23V3.64L214.956 4.824H206.636V0.599998H226.06V4.824H217.74L218.892 3.64V23H213.772Z" fill="#4F4F4F"/>
</svg>
